<svg width="105" height="31" fill="none" xmlns="http://www.w3.org/2000/svg"><path d="M100.964.047H4.667C2.54.047.815 1.727.815 3.797v22.5c0 2.071 1.725 3.75 3.852 3.75h96.297c2.127 0 3.851-1.679 3.851-3.75v-22.5c0-2.071-1.724-3.75-3.851-3.75z" fill="#000"/><path d="M100.964.647c.858 0 1.681.332 2.287.923.607.59.948 1.392.948 2.227v22.5c0 .836-.341 1.637-.948 2.227a3.278 3.278 0 01-2.287.923H4.667a3.28 3.28 0 01-2.288-.922 3.108 3.108 0 01-.947-2.228v-22.5c0-.835.34-1.637.947-2.227A3.28 3.28 0 014.667.647h96.297zm0-.6H4.667a3.906 3.906 0 00-2.723 1.098A3.7 3.7 0 00.815 3.797v22.5a3.7 3.7 0 001.129 2.652 3.906 3.906 0 002.723 1.098h96.297a3.905 3.905 0 002.723-1.098 3.698 3.698 0 001.128-2.652v-22.5a3.7 3.7 0 00-1.128-2.652 3.904 3.904 0 00-2.723-1.098z" fill="#A6A6A6"/><path d="M53.308 16.36a3.337 3.337 0 00-1.814.544c-.537.352-.954.85-1.2 1.433a3.11 3.11 0 00-.18 1.841c.129.617.442 1.184.9 1.628a3.303 3.303 0 001.677.868 3.357 3.357 0 001.89-.184 3.257 3.257 0 001.466-1.174c.36-.524.55-1.14.55-1.769a3.07 3.07 0 00-.237-1.23 3.137 3.137 0 00-.713-1.043 3.236 3.236 0 00-1.074-.689 3.306 3.306 0 00-1.265-.226zm0 5.122a2.03 2.03 0 01-1.139-.258 1.956 1.956 0 01-.793-.838 1.89 1.89 0 01.338-2.152 2.002 2.002 0 011.014-.569 2.04 2.04 0 011.167.085c.371.142.69.389.915.71.225.32.346.699.347 1.087a1.8 1.8 0 01-.112.723c-.087.232-.22.444-.393.624-.172.18-.38.325-.61.426a1.95 1.95 0 01-.734.162zm-7.172-5.122c-.647 0-1.28.19-1.817.54-.537.351-.956.85-1.202 1.432a3.109 3.109 0 00-.183 1.841c.127.618.44 1.186.898 1.63a3.303 3.303 0 001.676.87 3.357 3.357 0 001.89-.182 3.257 3.257 0 001.469-1.174c.36-.524.551-1.14.551-1.77a3.069 3.069 0 00-.238-1.23 3.138 3.138 0 00-.712-1.043 3.237 3.237 0 00-1.075-.689 3.306 3.306 0 00-1.264-.226h.007zm0 5.122a2.031 2.031 0 01-1.141-.255 1.957 1.957 0 01-.796-.835 1.89 1.89 0 01.333-2.155 2 2 0 011.013-.57 2.038 2.038 0 011.168.083c.371.141.691.388.916.709.226.32.347.7.348 1.088a1.8 1.8 0 01-.112.723c-.087.232-.22.444-.393.624-.172.18-.38.325-.61.426-.231.101-.48.156-.733.162h.007zm-8.543-4.14v1.35h3.328a2.793 2.793 0 01-.77 1.703c-.334.33-.734.588-1.176.759-.441.17-.915.249-1.39.23a3.75 3.75 0 01-2.615-1.054 3.552 3.552 0 01-1.083-2.545c0-.955.39-1.871 1.083-2.546a3.749 3.749 0 012.615-1.055 3.596 3.596 0 012.52.968l.978-.952c-.456-.45-1-.805-1.6-1.046a4.96 4.96 0 00-1.89-.357 5.215 5.215 0 00-2.009.32 5.113 5.113 0 00-1.72 1.06 4.958 4.958 0 00-1.155 1.632 4.846 4.846 0 000 3.883 4.957 4.957 0 001.156 1.632 5.111 5.111 0 001.72 1.06c.64.238 1.323.346 2.008.32.66.03 1.317-.08 1.93-.319a4.63 4.63 0 001.621-1.068 4.431 4.431 0 001.202-3.165 4.29 4.29 0 00-.077-.848l-4.676.038zm34.905 1.05a3.005 3.005 0 00-1.077-1.44 3.134 3.134 0 00-1.727-.593c-.421 0-.838.083-1.225.245-.387.163-.736.4-1.025.7a2.988 2.988 0 00-.654 1.037 2.926 2.926 0 00-.177 1.206c-.01.42.068.836.228 1.225.16.39.398.744.702 1.041.303.298.665.533 1.064.69.398.16.826.238 1.257.232a3.33 3.33 0 001.546-.371 3.23 3.23 0 001.18-1.04l-1.116-.75a1.85 1.85 0 01-.685.65 1.912 1.912 0 01-.925.235 1.699 1.699 0 01-.947-.245 1.633 1.633 0 01-.64-.722l4.383-1.762-.162-.338zm-4.468 1.065a1.706 1.706 0 01.454-1.28 1.79 1.79 0 01.568-.413c.216-.1.45-.157.688-.167.249-.016.497.04.713.16.216.12.392.299.505.515l-2.928 1.185zm-3.559 3.09h1.44v-9.375h-1.44v9.375zm-2.357-5.475h-.054a2.309 2.309 0 00-.78-.555 2.362 2.362 0 00-.946-.195 3.321 3.321 0 00-2.217.987 3.15 3.15 0 00-.906 2.204c0 .82.325 1.61.906 2.204a3.322 3.322 0 002.217.988c.327.005.65-.06.948-.19a2.23 2.23 0 00.778-.56h.046v.457c0 1.223-.67 1.875-1.749 1.875a1.843 1.843 0 01-1.001-.322 1.77 1.77 0 01-.647-.81l-1.256.51c.236.56.64 1.038 1.156 1.373a3.182 3.182 0 001.748.509c1.687 0 3.082-.968 3.082-3.323v-5.677h-1.325v.525zm-1.649 4.41a2.016 2.016 0 01-1.296-.623 1.914 1.914 0 01-.524-1.312c0-.486.187-.954.524-1.312.337-.358.8-.58 1.296-.623.246.012.488.073.71.177.222.104.42.251.583.432a1.754 1.754 0 01.455 1.326c.022.24-.007.483-.085.712a1.813 1.813 0 01-.956 1.052 1.875 1.875 0 01-.715.171h.008zm18.782-8.31h-3.444v9.375h1.44v-3.555h2.011a3.06 3.06 0 001.212-.159 3.014 3.014 0 001.045-.615 2.92 2.92 0 00.706-.971 2.852 2.852 0 000-2.33 2.92 2.92 0 00-.706-.97 3.014 3.014 0 00-1.045-.617 3.071 3.071 0 00-1.212-.158h-.007zm0 4.5h-2.01v-3.195h2.04c.439 0 .86.17 1.169.471.31.302.484.711.484 1.138 0 .426-.174.836-.484 1.137-.31.302-.73.472-1.168.472l-.031-.023zm8.882-1.35a2.755 2.755 0 00-1.502.343 2.655 2.655 0 00-1.063 1.09l1.279.517c.126-.226.317-.412.55-.534.232-.123.496-.177.76-.156a1.422 1.422 0 011.03.29 1.323 1.323 0 01.51.918v.097a3.25 3.25 0 00-1.502-.36c-1.38 0-2.774.75-2.774 2.107.014.29.087.574.215.835a2.2 2.2 0 00.532.688 2.283 2.283 0 001.641.54c.363.025.726-.045 1.052-.203.325-.159.6-.4.797-.697h.047v.75h1.386v-3.608c0-1.642-1.279-2.595-2.92-2.595l-.038-.022zm-.177 5.137c-.47 0-1.125-.232-1.125-.794 0-.75.817-.998 1.54-.998.459-.011.91.098 1.31.315a1.68 1.68 0 01-.555 1.057c-.31.276-.712.433-1.132.443l-.038-.023zm8.189-4.912l-1.649 4.065h-.046l-1.71-4.065h-1.54l2.564 5.685-1.463 3.158h1.502l3.944-8.843h-1.602zm-12.95 6h1.44v-9.375h-1.44v9.375zM37.298 7.774a1.992 1.992 0 01-.577 1.5c-.219.22-.483.394-.775.51a2.296 2.296 0 01-.92.157 2.473 2.473 0 01-1.34-.404 2.376 2.376 0 01-.885-1.059 2.305 2.305 0 01-.137-1.359c.093-.456.323-.875.66-1.205.22-.22.486-.393.779-.51.292-.116.607-.172.923-.165.325-.001.648.063.947.187.279.11.527.282.724.503l-.408.397a1.537 1.537 0 00-.567-.41 1.578 1.578 0 00-.696-.122 1.83 1.83 0 00-.701.136 1.79 1.79 0 00-.59.392 1.736 1.736 0 00-.386.586 1.698 1.698 0 00-.118.686c-.005.35.096.693.291.986.195.294.475.525.805.663a1.85 1.85 0 001.985-.352c.237-.25.374-.574.385-.915h-1.671v-.54h2.241c.021.112.031.225.031.338zm3.529-1.875h-2.08v1.425h1.895v.54h-1.895v1.425h2.08v.555H38.13v-4.5h2.697v.555zm2.526 3.945h-.593V5.899h-1.294v-.555h3.212v.555h-1.325v3.945zm3.59 0v-4.5h.593v4.5h-.593zm3.228 0h-.593V5.899h-1.294v-.555h3.174v.555H50.17v3.945zm7.303-.585c-.45.436-1.06.68-1.694.68a2.437 2.437 0 01-1.695-.68 2.396 2.396 0 01-.682-1.669c0-.62.244-1.217.682-1.669.222-.217.486-.39.777-.508a2.444 2.444 0 012.612.508c.44.45.685 1.048.685 1.67 0 .62-.245 1.218-.685 1.668zm-2.95-.375c.333.323.785.505 1.255.505.471 0 .923-.182 1.256-.505.33-.353.512-.813.512-1.29 0-.477-.183-.937-.512-1.29a1.804 1.804 0 00-1.255-.505c-.471 0-.923.182-1.256.505-.33.353-.512.813-.512 1.29 0 .477.183.937.512 1.29zm4.468.96v-4.5h.724l2.25 3.502V5.344h.593v4.5h-.616l-2.35-3.668v3.668h-.601z" fill="#fff"/><path fill-rule="evenodd" clip-rule="evenodd" d="M55.78 5.31c-.305 0-.607.058-.889.172a2.312 2.312 0 00-.751.492 2.322 2.322 0 00-.66 1.616c0 .601.236 1.18.66 1.617a2.359 2.359 0 001.64.658 2.36 2.36 0 001.64-.659 2.315 2.315 0 00.662-1.616c0-.601-.237-1.18-.663-1.616a2.315 2.315 0 00-.751-.492 2.366 2.366 0 00-.889-.173zm-.948.034a2.523 2.523 0 012.697.525h.001c.453.465.706 1.08.706 1.721 0 .64-.253 1.256-.706 1.72l-.001.002a2.516 2.516 0 01-1.75.703 2.515 2.515 0 01-1.749-.703l-.001-.002a2.47 2.47 0 01-.703-1.72c0-.64.251-1.255.703-1.72l.001-.001a2.47 2.47 0 01.802-.525zm-19.808-.03a2.288 2.288 0 00-.892.16c-.283.112-.54.28-.754.492-.326.32-.548.726-.638 1.168-.09.441-.044.9.132 1.316a2.3 2.3 0 00.858 1.025c.383.252.834.388 1.296.391h.002a2.18 2.18 0 001.637-.644 1.95 1.95 0 00.43-.667 1.91 1.91 0 00.126-.778l.077-.003h-.077a1.78 1.78 0 00-.019-.263h-2.1v.39h1.675l-.003.078c-.012.358-.156.7-.405.963l-.003.003c-.27.254-.61.424-.978.489a1.942 1.942 0 01-1.092-.122 1.883 1.883 0 01-.838-.691 1.81 1.81 0 01-.304-1.026 1.771 1.771 0 01.123-.714 1.81 1.81 0 01.402-.611 1.872 1.872 0 011.345-.551 1.647 1.647 0 011.268.498l.3-.29a1.83 1.83 0 00-.648-.431h-.001a2.365 2.365 0 00-.917-.182h-.002zm2.351 2.458c.014.285-.032.57-.135.836a2.1 2.1 0 01-.464.718 2.324 2.324 0 01-.8.527 2.375 2.375 0 01-.952.163 2.552 2.552 0 01-1.38-.417 2.453 2.453 0 01-.915-1.092 2.378 2.378 0 01-.14-1.402 2.42 2.42 0 01.68-1.244c.228-.227.502-.406.805-.526.302-.12.626-.178.953-.171.335-.001.667.065.976.193.29.114.547.293.753.523l.047.052-.519.505-.054-.062a1.462 1.462 0 00-.539-.391 1.499 1.499 0 00-.661-.115h-.005a1.75 1.75 0 00-.67.13 1.713 1.713 0 00-.565.375 1.66 1.66 0 00-.369.56c-.083.21-.121.433-.113.657v.004c-.005.335.092.663.279.945.187.28.455.502.77.635.316.132.665.171 1.004.111.337-.06.65-.215.896-.447.206-.218.331-.495.358-.788H34.95v-.69h2.383l.011.062c.022.115.032.232.032.35zm.678-2.503h2.85v.705h-2.08v1.275h1.896v.69h-1.895v1.275h2.08v.705h-2.85v-4.65zm.154.15v4.35h2.543v-.405h-2.08V7.789h1.895v-.39H38.67V5.824h2.08v-.405h-2.543zm3.182-.15h3.366v.705H43.43v3.945h-.747V5.974H41.39v-.705zm.154.15v.405h1.294v3.945h.44V5.824H44.6v-.405h-3.058zm5.323-.15h.748v4.65h-.748v-4.65zm.154.15v4.35h.44v-4.35h-.44zm1.187-.15h3.328v.705h-1.287v3.945h-.747V5.974h-1.294v-.705zm.154.15v.405h1.294v3.945h.44V5.824h1.286v-.405h-3.02zm10.554-.15h.844l2.13 3.316V5.269h.747v4.65H61.9l-2.23-3.48v3.48h-.755v-4.65zm.154.15v4.35h.447V5.914l2.47 3.855h.496v-4.35h-.44v3.689l-2.369-3.69h-.604zm-4.6.832c.348-.338.82-.527 1.31-.527.492 0 .963.19 1.31.527l.003.002c.342.367.532.845.532 1.34 0 .496-.19.974-.532 1.341l-.002.003a1.882 1.882 0 01-1.31.527 1.88 1.88 0 01-1.31-.527l.054-.053-.057.05a1.966 1.966 0 01-.532-1.34c0-.496.19-.973.532-1.34l.002-.003zm.11 2.581c.32.309.75.482 1.2.482.45 0 .881-.173 1.2-.482a1.814 1.814 0 000-2.476 1.727 1.727 0 00-1.2-.482c-.45 0-.88.173-1.2.482-.315.339-.49.78-.49 1.238 0 .458.175.899.49 1.238z" fill="#fff"/><path d="M8.858 5.702a1.474 1.474 0 00-.354 1.05v16.59c-.024.381.103.757.354 1.05l.054.053 9.545-9.285v-.218L8.912 5.65l-.054.052z" fill="url(#paint0_linear_32_320)"/><path d="M21.615 18.257l-3.158-3.098v-.217l3.158-3.105.07.037 3.782 2.093c1.079.592 1.079 1.567 0 2.167L21.7 18.22l-.085.038z" fill="url(#paint1_linear_32_320)"/><path d="M21.708 18.212l-3.251-3.165-9.599 9.345a1.278 1.278 0 001.602.045l11.255-6.225" fill="url(#paint2_linear_32_320)"/><path d="M21.708 11.882L10.453 5.657a1.278 1.278 0 00-1.603.045l9.607 9.345 3.25-3.165z" fill="url(#paint3_linear_32_320)"/><path opacity=".2" d="M21.615 18.145l-11.162 6.187a1.31 1.31 0 01-1.541 0l-.054.052.054.053a1.301 1.301 0 001.54 0l11.256-6.225-.093-.067z" fill="#000"/><path opacity=".12" d="M8.858 24.287a1.474 1.474 0 01-.354-1.05v.113c-.024.38.103.756.354 1.05l.054-.053-.054-.06zm16.61-8.265l-3.853 2.123.07.067 3.782-2.085a1.326 1.326 0 00.771-1.08 1.378 1.378 0 01-.27.575 1.414 1.414 0 01-.5.4z" fill="#000"/><path opacity=".25" d="M10.453 5.762l15.014 8.31a1.387 1.387 0 01.77.975 1.291 1.291 0 00-.236-.641 1.34 1.34 0 00-.534-.44l-15.014-8.31c-1.08-.591-1.958-.096-1.958 1.104v.113c.023-1.208.886-1.703 1.957-1.11z" fill="#fff"/><defs><linearGradient id="paint0_linear_32_320" x1="17.61" y1="6.58" x2="5.029" y2="19.502" gradientUnits="userSpaceOnUse"><stop stop-color="#00A0FF"/><stop offset=".01" stop-color="#00A1FF"/><stop offset=".26" stop-color="#00BEFF"/><stop offset=".51" stop-color="#00D2FF"/><stop offset=".76" stop-color="#00DFFF"/><stop offset="1" stop-color="#00E3FF"/></linearGradient><linearGradient id="paint1_linear_32_320" x1="26.877" y1="15.047" x2="8.242" y2="15.047" gradientUnits="userSpaceOnUse"><stop stop-color="#FFE000"/><stop offset=".41" stop-color="#FFBD00"/><stop offset=".78" stop-color="orange"/><stop offset="1" stop-color="#FF9C00"/></linearGradient><linearGradient id="paint2_linear_32_320" x1="19.944" y1="16.772" x2="2.88" y2="34.292" gradientUnits="userSpaceOnUse"><stop stop-color="#FF3A44"/><stop offset="1" stop-color="#C31162"/></linearGradient><linearGradient id="paint3_linear_32_320" x1="6.439" y1=".182" x2="14.056" y2="8.006" gradientUnits="userSpaceOnUse"><stop stop-color="#32A071"/><stop offset=".07" stop-color="#2DA771"/><stop offset=".48" stop-color="#15CF74"/><stop offset=".8" stop-color="#06E775"/><stop offset="1" stop-color="#00F076"/></linearGradient></defs></svg>