<svg width="41" height="40" fill="none" xmlns="http://www.w3.org/2000/svg"><circle cx="20.194" cy="20" r="20" fill="#F3FBF8"/><path clip-rule="evenodd" d="M15.617 27.82a.766.766 0 010 1.53.764.764 0 110-1.53zm11.252 0a.766.766 0 11-.001 1.532.766.766 0 01.001-1.532z" stroke="#222" stroke-width="1.5" stroke-linecap="round" stroke-linejoin="round"/><path d="M10.944 11.25l2.08.36.963 11.473a1.802 1.802 0 001.797 1.653h10.912c.896 0 1.656-.658 1.785-1.546l.95-6.558a1.34 1.34 0 00-1.328-1.533H13.358m8.962 3.698h2.773" stroke="#222" stroke-width="1.5" stroke-linecap="round" stroke-linejoin="round"/><circle cx="23.843" cy="10.778" r="3.027" fill="#09A66D"/></svg>